# xmcd
#
# Track frame offsets: 
#        150
#        19757
#        44577
#        61095
#        76077
#        100389
#        115768
#        137174
#        158997
#
# Disc length: 2482 seconds
#
# Revision: 0
# Processed by: cddbd v1.5.2PL0 Copyright (c) Steve Scherf et al.
# Submitted via: ExactAudioCopy v0.99pb5
#
DISCID=6e09b009
DTITLE=Vaya con Dios - Comme on est venu ... Live
DYEAR=2010
DGENRE=Chanson
TTITLE0=A en mourir pas
TTITLE1=Puerto Rico
TTITLE2=La vie c'est pas du gateau
TTITLE3=Johnny
TTITLE4=La pirogue de l'exode
TTITLE5=Il restera toujours
TTITLE6=Comme on est venu ...
TTITLE7=What's a woman?
TTITLE8=Nah Neh Nah
EXTD=
EXTT0=
EXTT1=
EXTT2=
EXTT3=
EXTT4=
EXTT5=
EXTT6=
EXTT7=
EXTT8=
PLAYORDER=
